<?xml version="1.0" encoding="utf-8"?>
<!-- Generator: Adobe Illustrator 21.0.0, SVG Export Plug-In . SVG Version: 6.00 Build 0)  -->
<svg version="1.1" id="Layer_1" xmlns="http://www.w3.org/2000/svg" xmlns:xlink="http://www.w3.org/1999/xlink" x="0px" y="0px"
	 viewBox="0 0 511 511" style="enable-background:new 0 0 511 511;" xml:space="preserve">
<style type="text/css">
	.st0{display:none;}
	.st1{display:inline;}
</style>
<g id="Layer_1_1_" class="st0">
	<path class="st1" d="M255.5,441.1h-0.1C240,441,103.7,439.8,65,429.3c-27-7.3-48.3-28.5-55.6-55.5C-0.7,335.9,0,262.8,0,257
		c-0.1-5.8-0.7-79.5,9.4-117.7v-0.1c7.2-26.7,29-48.6,55.5-55.9c0.1,0,0.1,0,0.2-0.1c38.2-10,174.8-11.3,190.2-11.4h0.3
		C271.1,72,407.8,73.2,446,83.7c26.9,7.2,48.2,28.5,55.5,55.5c10.5,38.2,9.5,112.1,9.4,118.2c0,1.4,0.1,7,0,15.2
		c-0.1,11-9,19.7-20,19.7c-0.1,0-0.1,0-0.2,0c-11-0.1-19.9-9.2-19.7-20.2c0.1-8.8,0-14.5,0-14.6c0-0.2,0-0.4,0-0.6
		c0.4-20.4-0.4-79.5-8-107.4c-3.6-13.4-14.1-23.9-27.4-27.5c-28.2-7.7-139.4-10.1-180.1-10.4c-40.7,0.3-151.7,2.6-180.1,10
		c-13.1,3.6-23.8,14.5-27.4,27.7c-8.9,33.8-8,106.5-8,107.2v0.5c-0.3,20.2,0.7,78.6,8,106.2c3.6,13.2,14.1,23.7,27.4,27.3
		c28.5,7.7,139.5,10.1,180.1,10.4c40.7-0.3,151.9-2.6,180.2-10c13.3-3.6,23.8-14.1,27.4-27.4c2.9-10.6,13.8-16.9,24.5-14.1
		c10.6,2.9,16.9,13.8,14.1,24.5c-7.3,27-28.6,48.3-55.6,55.5H446c-38.2,10-174.8,11.3-190.2,11.4
		C255.6,441.1,255.5,441.1,255.5,441.1z M232.9,330.8l102-58.9c5.9-3.4,9.5-9.7,9.5-16.5c0-6.8-3.6-13.1-9.5-16.5l-102-58.9
		c-5.8-3.4-13-3.4-18.9,0c-5.8,3.4-9.4,9.7-9.4,16.4v117.7c0,6.8,3.6,13,9.4,16.4c2.9,1.7,6.2,2.6,9.5,2.6
		C226.7,333.3,230,332.5,232.9,330.8z"/>
</g>
<g id="Layer_2">
	<path d="M219.2,152.9c-8-4.6-17.8-4.6-25.8,0s-12.9,13.2-12.9,22.5v161c0,9.3,4.9,17.8,12.9,22.5c4,2.3,8.5,3.5,12.9,3.5
		s8.9-1.2,12.9-3.5l139.5-80.5c8-4.6,13-13.2,13-22.5c0-9.3-4.9-17.9-13-22.5L219.2,152.9z"/>
	<path d="M512,432c0-11-9-20-20-20s-20,9-20,20c0,22.1-17.9,40-40,40H80c-22.1,0-40-17.9-40-40V80c0-22.1,17.9-40,40-40h352
		c22.1,0,40,17.9,40,40v251c0,11,9,20,20,20s20-9,20-20V80c0-44.1-35.9-80-80-80H80C35.9,0,0,35.9,0,80v352c0,44.1,35.9,80,80,80
		h352C476.1,512,512,476.1,512,432z"/>
</g>
</svg>
